<?xml version="1.0" encoding="UTF-8"?>
<svg width="36px" height="36px" viewBox="0 0 36 36" version="1.1" xmlns="http://www.w3.org/2000/svg" xmlns:xlink="http://www.w3.org/1999/xlink">
    <!-- Generator: Sketch 47.1 (45422) - http://www.bohemiancoding.com/sketch -->
    <title>uEA02-memory</title>
    <desc>Created with Sketch.</desc>
    <defs></defs>
    <g id="Page-1" stroke="none" stroke-width="1" fill="none" fill-rule="evenodd">
        <g id="Artboard" fill-rule="nonzero" fill="#000000">
            <path d="M10.5882353,31.7647059 C7.07294118,31.7647059 4.23529412,28.9270588 4.23529412,25.4117647 L4.23529412,23.2941176 L0,23.2941176 L0,21.1764706 L4.23529412,21.1764706 L4.23529412,14.8235294 L0,14.8235294 L0,12.7058824 L4.23529412,12.7058824 L4.23529412,10.5882353 C4.23529412,7.07294118 7.07294118,4.23529412 10.5882353,4.23529412 L12.7058824,4.23529412 L12.7058824,0 L14.8235294,0 L14.8235294,4.23529412 L21.1764706,4.23529412 L21.1764706,0 L23.2941176,0 L23.2941176,4.23529412 L25.4117647,4.23529412 C28.9270588,4.23529412 31.7647059,7.07294118 31.7647059,10.5882353 L31.7647059,12.7058824 L36,12.7058824 L36,14.8235294 L31.7647059,14.8235294 L31.7647059,21.1764706 L36,21.1764706 L36,23.2941176 L31.7647059,23.2941176 L31.7647059,25.4117647 C31.7647059,28.9270588 28.9270588,31.7647059 25.4117647,31.7647059 L23.2941176,31.7647059 L23.2941176,36 L21.1764706,36 L21.1764706,31.7647059 L14.8235294,31.7647059 L14.8235294,36 L12.7058824,36 L12.7058824,31.7647059 L10.5882353,31.7647059 L10.5882353,31.7647059 Z M6.47288345,10.7071072 L6.47288345,25.3434708 C6.47288345,27.6434708 8.35470163,29.525289 10.6547016,29.525289 L25.2910653,29.525289 C27.5910653,29.525289 29.4728835,27.6434708 29.4728835,25.3434708 L29.4728835,10.7071072 C29.4728835,8.4071072 27.5910653,6.52528902 25.2910653,6.52528902 L10.6547016,6.52528902 C8.35470163,6.52528902 6.47288345,8.4071072 6.47288345,10.7071072 Z M11.8679429,11.4784557 L23.8679429,11.4784557 L23.8679429,23.4784557 L11.8679429,23.4784557 L11.8679429,11.4784557 Z M13.8679429,13.4784557 L13.8679429,21.4784557 L21.8679429,21.4784557 L21.8679429,13.4784557 L13.8679429,13.4784557 Z" id="uEA02-memory"></path>
        </g>
    </g>
</svg>