<?xml version="1.0" encoding="UTF-8"?>
<svg width="36px" height="24px" viewBox="0 0 36 24" version="1.1" xmlns="http://www.w3.org/2000/svg" xmlns:xlink="http://www.w3.org/1999/xlink">
    <!-- Generator: Sketch 47.1 (45422) - http://www.bohemiancoding.com/sketch -->
    <title>uEA01-transaction</title>
    <desc>Created with Sketch.</desc>
    <defs></defs>
    <g id="Page-1" stroke="none" stroke-width="1" fill="none" fill-rule="evenodd">
        <g id="Artboard" transform="translate(0.000000, -6.000000)" fill-rule="nonzero" fill="#010101">
            <path d="M5.9992188,6 C4.2992188,6 2.9992188,7.3 2.9992188,9 L2.9992188,20.599609 L1.6984376,19.300781 C1.2984375,18.900781 0.7000001,18.900781 0.3,19.300781 C-0.1,19.700781 -0.1,20.299219 0.3,20.699219 L3.3,23.699219 C3.5,23.899219 3.6992188,24 3.9992188,24 C4.2992188,24 4.4984378,23.899219 4.6984378,23.699219 L7.6984378,20.699219 C8.0984378,20.299219 8.0984378,19.700781 7.6984378,19.300781 C7.2984378,18.900781 6.6999998,18.900781 6.2999998,19.300781 L4.9992188,20.599609 L4.9992188,9 C4.9992188,8.4 5.3992188,8 5.9992188,8 L31.9992188,8 C32.5992188,8 32.9992188,7.6 32.9992188,7 C32.9992188,6.4 32.5992188,6 31.9992188,6 L5.9992188,6 Z M31.9992188,12 C31.7492188,12 31.4999998,12.100781 31.2999998,12.300781 L28.2999998,15.300781 C27.8999998,15.700781 27.8999998,16.299219 28.2999998,16.699219 C28.6999998,17.099219 29.2984378,17.099219 29.6984378,16.699219 L30.9992188,15.400391 L30.9992188,27 C30.9992188,27.6 30.5992188,28 29.9992188,28 L3.9992188,28 C3.3992188,28 2.9992188,28.4 2.9992188,29 C2.9992188,29.6 3.3992188,30 3.9992188,30 L29.9992188,30 C31.6992188,30 32.9992188,28.7 32.9992188,27 L32.9992188,15.400391 L34.2999998,16.699219 C34.4999998,16.899219 34.7992188,17 34.9992188,17 C35.1992188,17 35.4984378,16.899219 35.6984378,16.699219 C36.0984378,16.299219 36.0984378,15.700781 35.6984378,15.300781 L32.6984378,12.300781 C32.4984378,12.100781 32.2492188,12 31.9992188,12 Z" id="uEA01-transaction"></path>
        </g>
    </g>
</svg>